# xmcd
# 
# Track frame offsets:
#     150
#     25739
#     49310
#     64935
#     79284
#     100217
#     123423
#     126267
#     145318
#     167456
#     189517
# 
# Disc length: 2805
# 
# Revision: 1
# Processed by: cddbd v1.5.2PL0 Copyright (c) Steve Scherf et al.
# Submitted via: BonkEnc v1.0.8
# 
DISCID=990af30b
DTITLE=The Five Corners Quintet - Hot Corner
DYEAR=2008
DGENRE=Jazz
TTITLE0=Hot Rod
TTITLE1=Kerouac Days In Montana
TTITLE2=Skinny Dipping
TTITLE3=Rich In Time
TTITLE4=Midnight In Trieste
TTITLE5=Come And Get Me
TTITLE6=Interlope II
TTITLE7=Waltz Up
TTITLE8=Easy Diggin'
TTITLE9=Shake It
TTITLE10=Habib's Habit
EXTD=YEAR: 2008
EXTT0=
EXTT1=
EXTT2=
EXTT3=
EXTT4=
EXTT5=
EXTT6=
EXTT7=
EXTT8=
EXTT9=
EXTT10=
PLAYORDER=
